<?xml version="1.0" encoding="UTF-8"?>
<svg version="1.1" xmlns="http://www.w3.org/2000/svg" width="1080" height="1080">
<path d="M0 0 C1.29841543 -0.00320648 2.59683086 -0.00641296 3.93459222 -0.0097166 C7.52495352 -0.01829662 11.11520963 -0.01452688 14.70557243 -0.00866088 C18.61688464 -0.00447741 22.52817812 -0.01189996 26.43948573 -0.01781338 C33.29018857 -0.02656632 40.14086152 -0.02789072 46.99156857 -0.02431011 C57.17901588 -0.01899959 67.36643429 -0.02510194 77.55387847 -0.03339304 C96.80770593 -0.04863215 116.06152025 -0.05033821 135.31535248 -0.04787002 C150.18339417 -0.04603724 165.05143154 -0.04779664 179.91947269 -0.05209446 C182.05567823 -0.05269686 184.19188376 -0.05329806 186.32808929 -0.05389806 C189.54716126 -0.05480532 192.76623322 -0.05571398 195.98530518 -0.05663041 C225.91409536 -0.06505984 255.84288391 -0.0693957 285.77167511 -0.06522369 C287.46401412 -0.06498913 287.46401412 -0.06498913 289.19054179 -0.06474983 C294.90881488 -0.06394405 300.62708795 -0.06309828 306.34536103 -0.06223653 C307.48102444 -0.06206544 308.61668784 -0.06189435 309.78676529 -0.06171808 C312.08335225 -0.06137142 314.37993922 -0.06102289 316.67652618 -0.06067249 C352.41302361 -0.05531505 388.14949636 -0.06324641 423.88598919 -0.08170605 C464.03828471 -0.10242238 504.19056495 -0.11314948 544.34286612 -0.10913056 C548.62421016 -0.10873522 552.90555419 -0.10837367 557.18689823 -0.10803318 C558.76815554 -0.10789708 558.76815554 -0.10789708 560.38135745 -0.10775824 C576.29431844 -0.10659232 592.207264 -0.11324012 608.12022114 -0.1238451 C626.21791042 -0.13589378 644.3155657 -0.13745986 662.41325549 -0.12505493 C672.53951497 -0.11842458 682.66569316 -0.1200615 692.79194615 -0.13364345 C699.55930807 -0.14188783 706.3266091 -0.13919052 713.09396607 -0.12766818 C716.94754161 -0.1214117 720.80095852 -0.11981107 724.6545249 -0.13153151 C728.8132411 -0.14406335 732.97157998 -0.13321715 737.1302948 -0.12025452 C738.3160922 -0.12756386 739.50188961 -0.13487321 740.72362027 -0.14240405 C766.20717456 0.02210061 789.74163222 10.4333423 807.78125286 28.17244434 C812.45004417 32.9319799 816.69317101 37.96590047 820.75390911 43.25447559 C821.32754192 44.00084278 821.90117474 44.74720997 822.49219036 45.51619434 C832.36038764 59.31127117 837.39492903 76.66026836 837.25727367 93.46086502 C837.26308744 94.71854467 837.2689012 95.97622433 837.27489114 97.27201548 C837.29033219 100.73426921 837.28122023 104.19607115 837.26777933 107.65831674 C837.25756938 111.43587655 837.270697 115.21337075 837.28075266 118.99092108 C837.29515905 125.60216651 837.29478613 132.21328115 837.28456402 138.82453251 C837.26940456 148.65589325 837.27718435 158.48714411 837.28939725 168.31850417 C837.31044113 185.87978205 837.3086422 203.44100166 837.2970816 221.00228506 C837.28701409 236.37119635 837.28439503 251.7400863 837.28917217 267.10900021 C837.28963048 268.63897725 837.28963048 268.63897725 837.29009805 270.19986293 C837.29134344 274.34046304 837.29261704 278.48106314 837.29393711 282.62166323 C837.30616977 321.4542356 837.29508471 360.28677088 837.27354952 399.11933753 C837.2545689 433.60768141 837.2562648 468.09596621 837.27539349 502.58430958 C837.29681998 541.34495292 837.30530077 580.10556351 837.29294443 618.86621195 C837.29166159 622.9995197 837.29041023 627.13282745 837.28917217 631.26613522 C837.28885586 632.28383792 837.28853955 633.30154062 837.28821366 634.3500828 C837.28366692 649.70734665 837.28897903 665.06458679 837.29909039 680.42184734 C837.31053263 697.88740533 837.30765706 715.352896 837.28596741 732.81844562 C837.27423347 742.58904521 837.27343928 752.359499 837.28855211 762.13009477 C837.29753915 768.66156277 837.29190788 775.19291417 837.27453303 781.72436492 C837.26504404 785.44236611 837.2617092 789.16007819 837.27615696 792.87806999 C837.37769919 821.03831587 837.37769919 821.03831587 832.75390911 833.25447559 C832.37151852 834.3656417 832.37151852 834.3656417 831.98140287 835.4992556 C823.10212021 860.09111607 803.77160129 879.60670616 780.75390911 891.25447559 C776.48572385 893.17492924 772.2084774 894.82361426 767.75390911 896.25447559 C767.08304735 896.49995295 766.41218559 896.7454303 765.72099468 896.99834636 C758.55741069 899.44395815 751.92796725 899.67741379 744.40498543 899.63758564 C743.06994248 899.64132797 741.73490269 899.64638064 740.39986905 899.65261447 C736.73951414 899.66591739 733.07938872 899.66065436 729.41902796 899.65228098 C725.43356811 899.64646459 721.44815176 899.65802893 717.46270376 899.66734266 C710.48018425 899.68124894 703.49772954 899.6839904 696.51519871 899.67938328 C686.13156533 899.67254988 675.74799754 899.68281055 665.36437327 899.69634084 C645.73895348 899.72125593 626.11356089 899.72576956 606.48812782 899.72387487 C591.3311842 899.72250186 576.17425001 899.72631912 561.01730824 899.73379993 C558.83978984 899.73485027 556.66227143 899.73589789 554.48475303 899.7369428 C552.86337955 899.73772181 552.86337955 899.73772181 551.20925105 899.73851657 C550.12635497 899.73903671 549.0434589 899.73955685 547.92774779 899.74009275 C546.84303705 899.74061675 545.75832632 899.74114074 544.64074557 899.74168061 C514.12931022 899.75626533 483.61787835 899.76454584 453.10643959 899.75993061 C451.38090069 899.75967268 451.38090069 899.75967268 449.62050241 899.75940954 C443.79003415 899.75852065 437.95956589 899.75757583 432.12909763 899.75661153 C430.97115139 899.75642049 429.81320514 899.75622946 428.62016961 899.75603264 C426.27851944 899.75564555 423.93686927 899.75525522 421.5952191 899.75486166 C385.16737692 899.74889298 348.73959829 899.76432348 312.31177044 899.79646778 C271.38229991 899.83255377 230.45286968 899.85187607 189.52338225 899.84692907 C185.15799495 899.8464591 180.79260765 899.84604885 176.42722034 899.84567738 C174.8149258 899.8455238 174.8149258 899.8455238 173.17005965 899.84536711 C156.95111845 899.84417279 140.73222082 899.85613309 124.51329136 899.87482166 C106.0628429 899.8960713 87.61248574 899.89989573 69.16203319 899.88052207 C58.84084083 899.87020489 48.51987126 899.87364291 38.1986991 899.89705293 C31.29753378 899.91131595 24.39653282 899.9072817 17.49537851 899.88860716 C13.56774695 899.87848626 9.64054807 899.87604536 5.71294402 899.89592785 C-24.18617225 900.03734697 -24.18617225 900.03734697 -38.24609089 894.25447559 C-39.58974196 893.71033583 -39.58974196 893.71033583 -40.96053749 893.15520334 C-42.92985029 892.31551572 -44.79892085 891.39307307 -46.68359089 890.37947559 C-47.34133503 890.03634327 -47.99907917 889.69321095 -48.67675495 889.33968067 C-72.22138974 876.80664596 -90.5668535 855.3247745 -98.5557192 829.75373119 C-102.72501375 814.66022015 -102.67590219 799.86962067 -102.62529219 784.3048862 C-102.61670663 780.62961517 -102.6256988 776.95437739 -102.63235635 773.27910811 C-102.64161473 766.85055094 -102.63982533 760.42207214 -102.63062382 753.99351597 C-102.6169784 744.43383741 -102.62060442 734.8742186 -102.62758242 725.31453563 C-102.63948998 708.23790712 -102.63443799 691.1613156 -102.62230415 674.08468914 C-102.61175849 659.14106867 -102.60722987 644.19746079 -102.60859966 629.25383663 C-102.60868369 628.26171635 -102.60876772 627.26959607 -102.6088543 626.24741153 C-102.60920656 622.21985301 -102.60959058 618.19229449 -102.61001988 614.16473597 C-102.61398281 576.40180365 -102.60127693 538.63889358 -102.58049332 500.87596762 C-102.56212316 467.34059162 -102.55631163 433.80523694 -102.56176472 400.26985645 C-102.56211115 398.11634312 -102.56245725 395.96282978 -102.56280301 393.80931645 C-102.562974 392.74464974 -102.563145 391.67998304 -102.56332117 390.58305371 C-102.56417475 385.22342818 -102.56499853 379.86380264 -102.56579018 374.50417709 C-102.56594726 373.44675679 -102.56610434 372.38933649 -102.56626618 371.29987315 C-102.57025785 343.26016082 -102.56477849 315.22045054 -102.55627888 287.18073946 C-102.55537187 284.16299045 -102.55446622 281.14524143 -102.55356365 278.12749242 C-102.55296254 276.12568374 -102.55235392 274.12387506 -102.55173774 272.12206638 C-102.54751956 258.1775327 -102.54693678 244.23300304 -102.54884324 230.28846893 C-102.55128803 212.31726178 -102.54719966 194.34607625 -102.53163324 176.374875 C-102.5235941 166.87536153 -102.52097325 157.37588403 -102.52627559 147.87636842 C-102.52925928 141.5256755 -102.52492935 135.17501428 -102.51472702 128.82432894 C-102.50911775 125.20967078 -102.50656848 121.5950858 -102.51289359 117.98042714 C-102.56855046 83.22858602 -102.56855046 83.22858602 -97.62109089 69.25447559 C-97.36239216 68.50738331 -97.10369343 67.76029102 -96.83715534 66.99055958 C-92.39205058 54.64973444 -86.16341974 43.9424378 -77.24609089 34.25447559 C-76.77042683 33.73111622 -76.29476276 33.20775684 -75.80468464 32.66853809 C-55.97972228 11.06896274 -29.29468742 -0.107974 0 0 Z " fill="#00BE62" transform="translate(172.24609088897705,89.7455244064331)"/>
<path d="M0 0 C0.71365723 0.18191895 1.42731445 0.36383789 2.16259766 0.55126953 C26.835888 7.14534928 50.3188886 22.11022176 64 44 C66.01857254 41.98142746 65.59393252 38.03528612 65.875 35.25 C68.29261847 13.94038799 68.29261847 13.94038799 73.1875 9.3125 C80.1945966 3.80570632 89.95168384 4.68774172 98.35375977 4.73925781 C100.42949763 4.74995875 102.50436687 4.73932855 104.58007812 4.7265625 C114.9236341 4.71470889 124.83768571 4.93118618 133 12 C139.10592657 19.85343447 137.46812344 31.04275247 137.3125 40.375 C137.30098103 42.1002496 137.29120409 43.82551175 137.28320312 45.55078125 C137.22564415 52.90914417 137.05326221 60.23922925 136.6362505 67.58661175 C136.10744944 76.92794254 135.84386083 86.23740247 135.80076981 95.59291267 C135.78862977 97.99580704 135.76911652 100.39854795 135.74765015 102.80137634 C135.68709194 109.61614878 135.63184915 116.43088325 135.59863281 123.24584961 C135.57758778 127.45653739 135.54224911 131.66690525 135.49787521 135.87740898 C135.48384163 137.46281606 135.4750218 139.04827923 135.47182083 140.63374519 C135.45020057 150.29407545 135.33581217 159.400601 130.25 167.9375 C123.15785549 174.43863247 113.77795929 174.16729775 104.73828125 174.23828125 C103.75184128 174.246353 102.76540131 174.25442474 101.74906921 174.26274109 C99.66549411 174.27653469 97.58189685 174.28727784 95.49829102 174.29516602 C93.38331404 174.30667367 91.26836583 174.3271061 89.15356445 174.35668945 C63.26669463 174.71833385 63.26669463 174.71833385 54.1875 167 C48.03952461 160.06157063 45.04038378 151.33127166 42.125 142.6875 C35.62951255 123.64555531 25.55012404 108.38764266 7.421875 98.609375 C-18.82836362 85.86803111 -55.51016814 84.53538812 -83.15625 93.85546875 C-87.34546495 95.54151268 -91.14341784 97.6717964 -95 100 C-96.3272777 100.67864286 -97.65899182 101.34890917 -99 102 C-99 102.66 -99 103.32 -99 104 C-99.66 104 -100.32 104 -101 104 C-101.268125 104.680625 -101.53625 105.36125 -101.8125 106.0625 C-103 109 -103 109 -104.54296875 112.1015625 C-106.41036277 116.47294912 -106.5361402 120.60676435 -106.5 125.3125 C-106.49359497 126.57054443 -106.49359497 126.57054443 -106.48706055 127.85400391 C-106.26130392 136.07856526 -103.96668185 141.47205402 -98.6875 147.75 C-97.3571875 148.86375 -97.3571875 148.86375 -96 150 C-95.50628906 150.433125 -95.01257813 150.86625 -94.50390625 151.3125 C-81.89853136 161.64385403 -65.77360017 167.35508963 -50.6875 172.9375 C-48.8302937 173.63395748 -46.97336327 174.331151 -45.11669922 175.02905273 C-28.79253759 181.14754248 -12.41080742 187.12269033 4.09375 192.73828125 C49.09879871 208.09964031 100.464487 226.81376176 123 272 C125.42986316 277.19795894 127.31793387 282.51874088 129 288 C129.21172852 288.66483398 129.42345703 289.32966797 129.64160156 290.01464844 C137.16891606 314.9347118 135.15673107 347.03811179 129 372 C128.68651611 373.31170166 128.68651611 373.31170166 128.36669922 374.64990234 C124.25740566 391.31177951 117.40568203 406.06699122 106 419 C105.55785156 419.58394531 105.11570312 420.16789062 104.66015625 420.76953125 C84.22435443 447.29259319 45.00520261 457.11684184 13.6953125 461.1875 C11.46388211 461.46112416 9.232127 461.73211797 7 462 C6.06510742 462.11859375 5.13021484 462.2371875 4.16699219 462.359375 C-23.94099203 465.80745192 -54.96587598 466.27779966 -83 462 C-84.04285156 461.84402344 -85.08570313 461.68804688 -86.16015625 461.52734375 C-121.03002068 456.12271493 -159.15248835 443.14083116 -181.20703125 413.609375 C-199.21669075 387.39923874 -207.11903136 359.47715388 -207.25 327.75 C-207.270625 326.51636719 -207.29125 325.28273438 -207.3125 324.01171875 C-207.36211962 312.21465417 -206.36764558 300.02725728 -198 291 C-190.26481736 284.60118021 -182.12539892 283.68998167 -172.421875 283.69921875 C-171.41465393 283.69493362 -170.40743286 283.6906485 -169.36968994 283.68623352 C-167.24500273 283.68050962 -165.12029593 283.6799756 -162.99560547 283.68432617 C-159.77406678 283.68747647 -156.55345601 283.66403549 -153.33203125 283.63867188 C-151.25781364 283.63639747 -149.1835936 283.63569604 -147.109375 283.63671875 C-146.16004089 283.627509 -145.21070679 283.61829926 -144.23260498 283.60881042 C-134.81442422 283.67274572 -126.37726923 285.3795039 -118.75390625 291.109375 C-113.66126209 296.59899588 -112.49127993 301.15636358 -112.5 308.375 C-111.98783243 325.74556759 -107.73627981 341.90943054 -95.41015625 354.75 C-84.11939631 365.29048254 -69.84924728 371.31648753 -54.390625 371.30078125 C-53.58994095 371.30642593 -52.7892569 371.31207062 -51.96430969 371.31788635 C-49.39267139 371.32982632 -46.82163626 371.32370225 -44.25 371.3125 C-43.373508 371.31034485 -42.49701599 371.3081897 -41.59396362 371.30596924 C-19.09218454 371.21679817 4.76413796 370.1099278 22.6875 354.6875 C31.19182707 344.80409287 33.80895095 334.57901887 33.3515625 321.65625 C32.67252108 314.59421926 29.31686243 310.60794744 24 306 C2.66020685 289.49722663 -25.83361007 282.58598152 -51.13500977 274.47290039 C-64.46471245 270.19744555 -77.71628289 265.7351438 -90.92041016 261.08447266 C-92.88484497 260.39270007 -94.85054346 259.70449842 -96.81787109 259.02099609 C-107.28829067 255.37801285 -117.2691371 251.27887034 -127.04833984 246.04150391 C-129.01825898 244.99025609 -131.00243686 243.969998 -132.98828125 242.94921875 C-166.76171948 225.20120501 -189.02822712 195.31152831 -200.30419922 159.37158203 C-204.3395361 145.61745485 -205.18686573 131.78363958 -205.18530273 117.54321289 C-205.18747887 115.33394787 -205.20566866 113.12519218 -205.22460938 110.91601562 C-205.34709381 80.64229781 -196.80998841 54.21306545 -175.5625 32.1875 C-155.82275425 13.07920648 -128.85398569 4.0693512 -102.37890625 -0.58154297 C-100.39650253 -0.93025397 -98.41664592 -1.29340662 -96.4375 -1.66015625 C-66.41618973 -7.0496202 -29.57006843 -7.69441379 0 0 Z " fill="#FDFEFE" transform="translate(613,296)"/>
<path d="M0 0 C0.89730331 0.00141495 1.79460663 0.0028299 2.71910095 0.00428772 C5.55105089 0.00983115 8.3829182 0.02237267 11.21484375 0.03515625 C13.14908739 0.04017858 15.08333228 0.04474019 17.01757812 0.04882812 C21.72919792 0.05978196 26.44075688 0.07700672 31.15234375 0.09765625 C31.15234375 0.42765625 31.15234375 0.75765625 31.15234375 1.09765625 C30.3931665 1.19788086 29.63398926 1.29810547 28.85180664 1.40136719 C-8.45270114 6.38019383 -48.40268796 14.52424221 -73.17578125 45.77294922 C-88.99344554 66.71390845 -94.03577491 90.86764412 -94.03295898 116.66430664 C-94.03514195 118.89554034 -94.05335136 121.12627533 -94.07226562 123.35742188 C-94.10615038 132.14026443 -93.3989712 140.43006422 -91.84765625 149.09765625 C-91.61157597 150.95095533 -91.38146346 152.80503509 -91.16015625 154.66015625 C-86.9692103 179.25353674 -73.92905724 202.267071 -56.84765625 220.09765625 C-56.17476563 220.83371094 -55.501875 221.56976562 -54.80859375 222.328125 C-30.10132808 248.46970759 5.1548367 259.68075642 38.34326172 270.52441406 C106.78402955 292.89171953 106.78402955 292.89171953 123.15234375 302.09765625 C124.14363281 302.65453125 125.13492187 303.21140625 126.15625 303.78515625 C133.98185913 308.34155167 141.1723938 313.1578064 144.15234375 322.09765625 C144.94978548 335.60815941 143.64998933 346.99830861 135.15234375 358.09765625 C121.50790176 372.27552293 98.27091598 375.94033785 79.40354919 376.3381958 C76.3277104 376.37171415 73.25296402 376.37527971 70.17700195 376.35839844 C67.796791 376.34745837 65.41730078 376.35848089 63.03710938 376.37109375 C61.51692542 376.36977556 59.99674192 376.36722026 58.4765625 376.36328125 C57.76835861 376.36732971 57.06015472 376.37137817 56.33049011 376.37554932 C51.38240449 376.32771699 51.38240449 376.32771699 49.15234375 374.09765625 C50.22871094 373.93910156 51.30507813 373.78054688 52.4140625 373.6171875 C67.69327183 371.23140317 83.70158826 367.34851281 93.4609375 354.35546875 C100.18415384 344.42027072 101.22018566 333.80622872 100.15234375 322.09765625 C99.41215003 319.05288774 98.30331227 317.34997931 96.15234375 315.09765625 C95.51554688 314.39640625 94.87875 313.69515625 94.22265625 312.97265625 C73.04024169 291.86156295 34.13325846 283.8416222 6.55859375 275.1328125 C-67.65517461 251.66007087 -67.65517461 251.66007087 -94.84765625 226.09765625 C-95.38116699 225.60120605 -95.91467773 225.10475586 -96.46435547 224.59326172 C-118.29777508 204.10733699 -130.0806826 179.10317707 -135.84765625 150.09765625 C-136.03529541 149.2169043 -136.22293457 148.33615234 -136.41625977 147.42871094 C-138.0330741 139.07337135 -138.18665159 130.85171322 -138.16333008 122.37304688 C-138.16018833 119.99692022 -138.18365051 117.62206598 -138.20898438 115.24609375 C-138.32946966 85.79020241 -129.92894516 58.18797826 -108.97265625 36.84765625 C-104.00255556 31.93677908 -98.77086282 27.82385646 -92.84765625 24.09765625 C-91.78804688 23.36869141 -91.78804688 23.36869141 -90.70703125 22.625 C-69.81841836 8.93054225 -43.24494711 3.87018042 -18.84765625 1.09765625 C-18.20480179 1.01424484 -17.56194733 0.93083344 -16.89961243 0.84489441 C-11.24297099 0.14651635 -5.69569 -0.03456962 0 0 Z " fill="#020302" transform="translate(502.84765625,291.90234375)"/>
<path d="M0 0 C0.9237442 0.00141495 1.8474884 0.0028299 2.79922485 0.00428772 C5.73337112 0.00986016 8.66743951 0.02240756 11.6015625 0.03515625 C13.59765514 0.04017481 15.59374899 0.0447371 17.58984375 0.04882812 C22.46877975 0.05982056 27.34765795 0.07706615 32.2265625 0.09765625 C30.12197105 1.16493325 28.04344504 2.17289758 25.859375 3.0703125 C19.00137017 6.05066039 15.40500542 9.33230309 12.2265625 16.09765625 C9.39192331 25.09505978 8.74321999 33.84284087 8.8515625 43.22265625 C8.86026367 44.48875732 8.86896484 45.7548584 8.87792969 47.05932617 C9.0370158 57.31190467 10.03539366 67.09124057 12.2265625 77.09765625 C12.37109863 77.79101074 12.51563477 78.48436523 12.66455078 79.19873047 C16.83943465 98.91731266 24.94025652 117.81277458 38.2265625 133.09765625 C38.89171875 133.97744141 38.89171875 133.97744141 39.5703125 134.875 C61.09555799 162.76594309 102.03073713 173.14823738 135.0078125 177.46142578 C140.0740906 178.07906252 145.14570538 178.61557742 150.2265625 179.09765625 C150.2265625 179.42765625 150.2265625 179.75765625 150.2265625 180.09765625 C127.39577093 180.43441906 104.85145559 180.64645179 82.2265625 177.09765625 C81.19724609 176.93668457 80.16792969 176.77571289 79.10742188 176.60986328 C44.5373616 170.91204302 9.62147946 155.59041512 -11.4296875 126.49609375 C-21.68512617 111.82745401 -27.62017349 96.02916162 -31.6484375 78.66015625 C-31.85170654 77.78552734 -32.05497559 76.91089844 -32.2644043 76.00976562 C-34.66282051 64.96604056 -35.00146818 53.8238882 -35.06860352 42.55200195 C-35.08017581 41.20554134 -35.10071005 39.85912843 -35.13012695 38.51293945 C-35.37969478 27.00632883 -33.97669877 16.98544293 -26.54296875 7.8203125 C-18.90314619 0.38286935 -10.10470141 -0.05874893 0 0 Z " fill="#010301" transform="translate(397.7734375,579.90234375)"/>
<path d="M0 0 C12.95879224 11.18281318 20.44941851 25.15510168 25.78125 41.17578125 C28.98181466 50.78556881 32.47198363 59.01127033 41.15625 64.80078125 C44.1088208 65.99829355 47.08401455 66.96103689 50.15625 67.80078125 C50.15625 68.13078125 50.15625 68.46078125 50.15625 68.80078125 C44.19721157 68.87535049 38.23844925 68.92958078 32.27905273 68.96557617 C30.25491601 68.9805937 28.23081145 69.00101386 26.20678711 69.02709961 C23.28491239 69.06379392 20.36347065 69.08057833 17.44140625 69.09375 C16.54728531 69.10923386 15.65316437 69.12471771 14.73194885 69.14067078 C5.77646762 69.14302979 -1.4764177 67.11308066 -8.0078125 60.83984375 C-14.46651873 53.66655726 -17.15162255 45.32746059 -20.17041016 36.34155273 C-26.96984856 16.41030348 -38.97038361 1.24654906 -57.86279297 -8.29443359 C-65.09581704 -11.59805538 -73.04002171 -13.77627405 -80.84375 -15.19921875 C-80.84375 -15.52921875 -80.84375 -15.85921875 -80.84375 -16.19921875 C-53.82717585 -21.05831482 -22.10070348 -17.09161546 0 0 Z " fill="#020302" transform="translate(631.84375,401.19921875)"/>
<path d="M0 0 C2.02511182 0.01830141 4.04976502 0.02050876 6.07495117 0.02026367 C12.15339974 0.04749415 17.95043703 0.24536779 23.96362305 1.20581055 C23.20049805 1.94831055 22.43737305 2.69081055 21.65112305 3.45581055 C16.98039411 8.23516108 15.36821562 11.64326432 14.33862305 18.26831055 C14.21237549 19.02184814 14.08612793 19.77538574 13.95605469 20.55175781 C13.11139496 25.75355115 12.53753752 30.93568989 12.2722168 36.2019043 C11.96362305 38.20581055 11.96362305 38.20581055 9.96362305 40.20581055 C9.33456055 39.36018555 8.70549805 38.51456055 8.05737305 37.64331055 C0.09850915 27.04349397 -8.0330813 18.92899863 -18.9621582 11.4050293 C-21.25614864 9.76396625 -23.16857577 8.2893866 -25.03637695 6.20581055 C-18.97901243 -1.36589511 -8.80852523 -0.08234265 0 0 Z " fill="#040704" transform="translate(667.036376953125,300.794189453125)"/>
<path d="M0 0 C1.2065625 0.0309375 1.2065625 0.0309375 2.4375 0.0625 C2.4375 1.3825 2.4375 2.7025 2.4375 4.0625 C7.7175 4.0625 12.9975 4.0625 18.4375 4.0625 C18.4375 4.7225 18.4375 5.3825 18.4375 6.0625 C20.4175 6.0625 22.3975 6.0625 24.4375 6.0625 C24.4375 6.3925 24.4375 6.7225 24.4375 7.0625 C23.20773437 7.26166016 23.20773437 7.26166016 21.953125 7.46484375 C20.33664062 7.72974609 20.33664062 7.72974609 18.6875 8 C17.62015625 8.17402344 16.5528125 8.34804688 15.453125 8.52734375 C12.56814952 8.97230669 12.56814952 8.97230669 10.3671875 9.71484375 C7.7022261 10.19496837 5.87071692 9.51987506 3.3125 8.6875 C2.44367187 8.41164063 1.57484375 8.13578125 0.6796875 7.8515625 C-1.5625 7.0625 -1.5625 7.0625 -3.5625 6.0625 C-3.605221 4.39638095 -3.60313832 2.72867115 -3.5625 1.0625 C-2.5625 0.0625 -2.5625 0.0625 0 0 Z " fill="#07BA62" transform="translate(541.5625,657.9375)"/>
<path d="M0 0 C0.9237442 0.00141495 1.8474884 0.0028299 2.79922485 0.00428772 C5.73337112 0.00986016 8.66743951 0.02240756 11.6015625 0.03515625 C13.59765514 0.04017481 15.59374899 0.0447371 17.58984375 0.04882812 C22.46877975 0.05982056 27.34765795 0.07706615 32.2265625 0.09765625 C28.97125442 1.78192434 25.72185544 2.98551759 22.2265625 4.09765625 C21.7315625 3.60265625 21.7315625 3.60265625 21.2265625 3.09765625 C18.48955072 2.93755144 15.7748866 2.83818797 13.03515625 2.78125 C11.80539818 2.75007835 11.80539818 2.75007835 10.55079651 2.71827698 C7.92197349 2.65269131 5.29304746 2.59385499 2.6640625 2.53515625 C0.88605689 2.49197958 -0.89193815 2.44836558 -2.66992188 2.40429688 C-7.03765384 2.29700082 -11.40548977 2.19575921 -15.7734375 2.09765625 C-15.7734375 1.76765625 -15.7734375 1.43765625 -15.7734375 1.09765625 C-10.4761582 0.00258206 -5.3801258 -0.03128016 0 0 Z " fill="#10341C" transform="translate(397.7734375,579.90234375)"/>
<path d="M0 0 C-18.17446043 7.61780576 -18.17446043 7.61780576 -26 7 C-26 6.01 -26 5.02 -26 4 C-22.7 4 -19.4 4 -16 4 C-16 3.34 -16 2.68 -16 2 C-14.02 2 -12.04 2 -10 2 C-10 1.34 -10 0.68 -10 0 C-3.375 -1.125 -3.375 -1.125 0 0 Z " fill="#30C07D" transform="translate(950,982)"/>
<path d="M0 0 C0.99 0.99 1.98 1.98 3 3 C-0.15978086 10.73114766 -3.28168066 18.06129508 -8 25 C-10 22 -10 22 -10 20 C-9.34 20 -8.68 20 -8 20 C-8 18.68 -8 17.36 -8 16 C-7.01 16 -6.02 16 -5 16 C-4.80664062 15.34773437 -4.61328125 14.69546875 -4.4140625 14.0234375 C-3.01359552 9.3228602 -1.58791274 4.64159109 0 0 Z " fill="#25BE77" transform="translate(1002,920)"/>
<path d="M0 0 C0.99 0 1.98 0 3 0 C3 0.66 3 1.32 3 2 C3.61875 2.12375 4.2375 2.2475 4.875 2.375 C8.16657884 3.34311142 9.11239022 5.16858533 11 8 C11.98095748 9.01868662 12.97702078 10.02351983 14 11 C13.34 11 12.68 11 12 11 C12.33 12.32 12.66 13.64 13 15 C7.79261817 10.93269584 3.61710447 6.55152664 0 1 C0 0.67 0 0.34 0 0 Z " fill="#0EBB6A" transform="translate(509,640)"/>
<path d="M0 0 C0 0.66 0 1.32 0 2 C-2.64 2 -5.28 2 -8 2 C-8 2.66 -8 3.32 -8 4 C-17.24 4 -26.48 4 -36 4 C-36 3.67 -36 3.34 -36 3 C-34.97229492 2.91697632 -34.97229492 2.91697632 -33.92382812 2.83227539 C-30.78240409 2.57747217 -27.64120362 2.32000565 -24.5 2.0625 C-23.42234375 1.97548828 -22.3446875 1.88847656 -21.234375 1.79882812 C-16.63366652 1.42011127 -12.04626186 1.03550684 -7.46875 0.43359375 C-4 0 -4 0 0 0 Z " fill="#2EB978" transform="translate(632,756)"/>
<path d="M0 0 C3.44868587 4.08733141 6.23793154 8.43805907 9 13 C5.375 16 5.375 16 2 16 C2.03480469 15.06027344 2.03480469 15.06027344 2.0703125 14.1015625 C2.08835937 13.28429687 2.10640625 12.46703125 2.125 11.625 C2.14820313 10.81289062 2.17140625 10.00078125 2.1953125 9.1640625 C2.21370051 6.78657757 2.21370051 6.78657757 0 5 C-0.125 2.375 -0.125 2.375 0 0 Z " fill="#10BC69" transform="translate(992,133)"/>
<path d="M0 0 C0.99 0 1.98 0 3 0 C2.69580192 3.15062302 1.89240513 4.10741963 -0.3984375 6.39453125 C-1.38070312 7.19246094 -2.36296875 7.99039063 -3.375 8.8125 C-4.35210938 9.62332031 -5.32921875 10.43414063 -6.3359375 11.26953125 C-7.21507812 11.84058594 -8.09421875 12.41164063 -9 13 C-9.99 12.67 -10.98 12.34 -12 12 C-11.67 11.34 -11.34 10.68 -11 10 C-10.01 10 -9.02 10 -8 10 C-7.67 8.68 -7.34 7.36 -7 6 C-6.01 6 -5.02 6 -4 6 C-4 5.34 -4 4.68 -4 4 C-2.68 3.67 -1.36 3.34 0 3 C0 2.01 0 1.02 0 0 Z " fill="#31C17F" transform="translate(976,960)"/>
<path d="M0 0 C3.19624262 1.53837846 6.21605574 3.28866532 9.25 5.125 C10.14203125 5.66382813 11.0340625 6.20265625 11.953125 6.7578125 C12.96632813 7.37269531 12.96632813 7.37269531 14 8 C13.01 8.495 13.01 8.495 12 9 C12 9.66 12 10.32 12 11 C11.34 11 10.68 11 10 11 C10 10.34 10 9.68 10 9 C9.34 9 8.68 9 8 9 C7.34 8.01 6.68 7.02 6 6 C3.4582293 5.83328148 3.4582293 5.83328148 1 6 C0 5 0 5 -0.0625 2.4375 C-0.041875 1.633125 -0.02125 0.82875 0 0 Z " fill="#0DB163" transform="translate(418,527)"/>
<path d="M0 0 C0 0.99 0 1.98 0 3 C-1.65 3.33 -3.3 3.66 -5 4 C-5 5.32 -5 6.64 -5 8 C-5.99 8.33 -6.98 8.66 -8 9 C-8.99 10.485 -8.99 10.485 -10 12 C-10 11.34 -10 10.68 -10 10 C-10.99 10 -11.98 10 -13 10 C-13 9.34 -13 8.68 -13 8 C-11.171875 6.5625 -11.171875 6.5625 -8.75 5 C-7.96109375 4.484375 -7.1721875 3.96875 -6.359375 3.4375 C-4.27929114 2.17016414 -2.19688285 1.0480542 0 0 Z " fill="#0CBE6A" transform="translate(527,390)"/>
<path d="M0 0 C0.33 0.66 0.66 1.32 1 2 C1.66 2 2.32 2 3 2 C3.66 4.64 4.32 7.28 5 10 C5.66 10 6.32 10 7 10 C7 10.66 7 11.32 7 12 C7.66 12 8.32 12 9 12 C8.67 13.65 8.34 15.3 8 17 C0.24324324 7.85810811 0.24324324 7.85810811 -0.25 2.0625 C-0.1675 1.381875 -0.085 0.70125 0 0 Z " fill="#1FBB73" transform="translate(79,928)"/>
<path d="M0 0 C3.63 1.32 7.26 2.64 11 4 C11 4.66 11 5.32 11 6 C10.34 6 9.68 6 9 6 C8.67 6.66 8.34 7.32 8 8 C7.01 7.67 6.02 7.34 5 7 C5 6.34 5 5.68 5 5 C2.36 4.34 -0.28 3.68 -3 3 C-2.01 2.67 -1.02 2.34 0 2 C0 1.34 0 0.68 0 0 Z " fill="#1CBF73" transform="translate(943,95)"/>
<path d="M0 0 C0.66 0 1.32 0 2 0 C2 0.66 2 1.32 2 2 C3.32 2 4.64 2 6 2 C6 3.32 6 4.64 6 6 C6.66 6.33 7.32 6.66 8 7 C5 8 5 8 2.73828125 7.00390625 C1.93777344 6.52824219 1.13726562 6.05257812 0.3125 5.5625 C-0.49574219 5.08941406 -1.30398437 4.61632812 -2.13671875 4.12890625 C-2.75160156 3.75636719 -3.36648437 3.38382813 -4 3 C-2.68 2.67 -1.36 2.34 0 2 C0 1.34 0 0.68 0 0 Z " fill="#24BE75" transform="translate(120,972)"/>
<path d="M0 0 C1.07765625 0.10183594 2.1553125 0.20367188 3.265625 0.30859375 C4.08546875 0.39238281 4.9053125 0.47617187 5.75 0.5625 C5.75 1.2225 5.75 1.8825 5.75 2.5625 C0.47 2.5625 -4.81 2.5625 -10.25 2.5625 C-10.25 1.9025 -10.25 1.2425 -10.25 0.5625 C-6.70049966 -0.60056443 -3.69176052 -0.36115049 0 0 Z " fill="#09B664" transform="translate(554.25,759.4375)"/>
<path d="M0 0 C-2.46153846 3.81538462 -2.46153846 3.81538462 -5.1875 4.75 C-5.785625 4.8325 -6.38375 4.915 -7 5 C-7 4.01 -7 3.02 -7 2 C-9.64 2 -12.28 2 -15 2 C-12.09064546 0.37262132 -9.68626361 -0.34972896 -6.375 -0.6875 C-5.21097656 -0.81705078 -5.21097656 -0.81705078 -4.0234375 -0.94921875 C-2 -1 -2 -1 0 0 Z " fill="#1BBB6E" transform="translate(551,386)"/>
<path d="M0 0 C0.99 0.33 1.98 0.66 3 1 C-0.3 4.3 -3.6 7.6 -7 11 C-7.33 10.01 -7.66 9.02 -8 8 C-7.34 8 -6.68 8 -6 8 C-5.67 6.35 -5.34 4.7 -5 3 C-3.35 2.67 -1.7 2.34 0 2 C0 1.34 0 0.68 0 0 Z " fill="#10A961" transform="translate(394,326)"/>
<path d="M0 0 C1 3 1 3 -0.125 5.5 C-2.16131229 8.21508305 -4.00479488 9.46192169 -7 11 C-7.66 10.34 -8.32 9.68 -9 9 C-8.2575 8.443125 -7.515 7.88625 -6.75 7.3125 C-4.08292005 5.06972822 -2.08443768 2.77925025 0 0 Z " fill="#20BE74" transform="translate(719,714)"/>
<path d="M0 0 C0.66 0.33 1.32 0.66 2 1 C0.30820672 3.04219706 -0.63727666 3.91793306 -3.26171875 4.51171875 C-4.06222656 4.56972656 -4.86273437 4.62773438 -5.6875 4.6875 C-6.49574219 4.75324219 -7.30398438 4.81898438 -8.13671875 4.88671875 C-9.05904297 4.94279297 -9.05904297 4.94279297 -10 5 C-10 4.01 -10 3.02 -10 2 C-6.7 2 -3.4 2 0 2 C0 1.34 0 0.68 0 0 Z " fill="#24BE76" transform="translate(934,984)"/>
<path d="M0 0 C1.65 0 3.3 0 5 0 C5 0.66 5 1.32 5 2 C6.32 2 7.64 2 9 2 C9 2.66 9 3.32 9 4 C10.32 4 11.64 4 13 4 C12.67 4.66 12.34 5.32 12 6 C7.71 4.68 3.42 3.36 -1 2 C-0.67 1.34 -0.34 0.68 0 0 Z " fill="#33C07E" transform="translate(135,982)"/>
<path d="M0 0 C0.33 1.32 0.66 2.64 1 4 C-0.4370809 4.05422947 -1.87475462 4.09289723 -3.3125 4.125 C-4.11300781 4.14820312 -4.91351563 4.17140625 -5.73828125 4.1953125 C-8 4 -8 4 -11 2 C-5.555 1.01 -5.555 1.01 0 0 Z " fill="#1DBE6F" transform="translate(159,90)"/>
<path d="M0 0 C2.64 0 5.28 0 8 0 C8 0.66 8 1.32 8 2 C8.99 2.33 9.98 2.66 11 3 C7.04 3 3.08 3 -1 3 C-0.67 2.01 -0.34 1.02 0 0 Z " fill="#08B865" transform="translate(921,91)"/>
<path d="M0 0 C2.4375 0.6875 2.4375 0.6875 5 2 C5.8125 4.625 5.8125 4.625 6 7 C3.5625 6.3125 3.5625 6.3125 1 5 C0.1875 2.375 0.1875 2.375 0 0 Z " fill="#27BE78" transform="translate(109,966)"/>
<path d="M0 0 C0 4.13781054 -1.71509607 5.20919996 -4.5 8.1875 C-5.3353125 9.08855469 -6.170625 9.98960938 -7.03125 10.91796875 C-7.6809375 11.60503906 -8.330625 12.29210937 -9 13 C-9.33 12.01 -9.66 11.02 -10 10 C-6.7 6.7 -3.4 3.4 0 0 Z " fill="#00B04F" transform="translate(105,114)"/>
<path d="M0 0 C3.96 1.98 3.96 1.98 8 4 C8 4.66 8 5.32 8 6 C7.01 5.67 6.02 5.34 5 5 C4.34 5.66 3.68 6.32 3 7 C3 6.34 3 5.68 3 5 C2.01 4.67 1.02 4.34 0 4 C0 2.68 0 1.36 0 0 Z " fill="#2CC37A" transform="translate(956,101)"/>
<path d="M0 0 C0.66 0.33 1.32 0.66 2 1 C1.25 8.625 1.25 8.625 -1 12 C-2 11 -2 11 -2.0625 8.4375 C-2.041875 7.633125 -2.02125 6.82875 -2 6 C-1.34 6 -0.68 6 0 6 C0 4.02 0 2.04 0 0 Z " fill="#2FBE7B" transform="translate(1006,908)"/>
<path d="M0 0 C0 3.10551666 -0.5393715 4.35261084 -2 7 C-2.99 6.67 -3.98 6.34 -5 6 C-5.33 6.99 -5.66 7.98 -6 9 C-6.99 8.34 -7.98 7.68 -9 7 C-6.03 4.69 -3.06 2.38 0 0 Z " fill="#25BA77" transform="translate(709,724)"/>
<path d="M0 0 C2.6486859 3.19668988 4.93992341 6.39486597 7 10 C6.01 10.495 6.01 10.495 5 11 C5 10.34 5 9.68 5 9 C4.34 9 3.68 9 3 9 C0.78252188 6.69723426 0.03239994 5.47519908 -0.1875 2.25 C-0.125625 1.5075 -0.06375 0.765 0 0 Z " fill="#3BC685" transform="translate(992,133)"/>
<path d="M0 0 C2.97 0 5.94 0 9 0 C9 0.99 9 1.98 9 3 C6.03 2.67 3.06 2.34 0 2 C0 1.34 0 0.68 0 0 Z " fill="#15BA6C" transform="translate(148,986)"/>
<path d="M0 0 C1.79068573 2.6860286 2.66055791 4.6626589 3.625 7.6875 C3.88539063 8.49574219 4.14578125 9.30398437 4.4140625 10.13671875 C4.60742188 10.75160156 4.80078125 11.36648437 5 12 C4.01 12.33 3.02 12.66 2 13 C2 11.02 2 9.04 2 7 C1.34 7 0.68 7 0 7 C0 4.69 0 2.38 0 0 Z " fill="#2CBD79" transform="translate(1002,151)"/>
<path d="M0 0 C3.24299151 2.38957269 5.50902342 4.2047869 7 8 C5.68 8.33 4.36 8.66 3 9 C1.35173889 6.03312999 0.55728913 3.34373475 0 0 Z " fill="#0BAC60" transform="translate(391,500)"/>
<path d="M0 0 C0.33 0 0.66 0 1 0 C1 2.97 1 5.94 1 9 C-0.32 9 -1.64 9 -3 9 C-2.01 6.03 -1.02 3.06 0 0 Z " fill="#1CBD72" transform="translate(509,405)"/>
<path d="M0 0 C0.66 0 1.32 0 2 0 C2 1.32 2 2.64 2 4 C2.66 4 3.32 4 4 4 C3.67 5.98 3.34 7.96 3 10 C2.67 8.68 2.34 7.36 2 6 C1.34 6 0.68 6 0 6 C0 4.02 0 2.04 0 0 Z " fill="#0DB364" transform="translate(598,630)"/>
<path d="M0 0 C2.31 1.65 4.62 3.3 7 5 C6.01 6.485 6.01 6.485 5 8 C4.34 7.67 3.68 7.34 3 7 C3 6.34 3 5.68 3 5 C2.34 5 1.68 5 1 5 C0.67 3.35 0.34 1.7 0 0 Z " fill="#2BBF7A" transform="translate(969,109)"/>
<path d="M0 0 C2.475 0.99 2.475 0.99 5 2 C4.67 3.65 4.34 5.3 4 7 C2.35 5.68 0.7 4.36 -1 3 C-0.67 2.01 -0.34 1.02 0 0 Z " fill="#10BD6B" transform="translate(103,960)"/>
<path d="M0 0 C1.485 0.99 1.485 0.99 3 2 C3.1875 5.625 3.1875 5.625 3 9 C2.01 9.495 2.01 9.495 1 10 C0.67 6.7 0.34 3.4 0 0 Z " fill="#20B874" transform="translate(501,614)"/>
<path d="M0 0 C1.65 0 3.3 0 5 0 C5 2.64 5 5.28 5 8 C2.98863724 5.44008376 1.37154504 2.95409701 0 0 Z " fill="#20B56D" transform="translate(495,588)"/>
<path d="M0 0 C0 0.99 0 1.98 0 3 C-1.65 3.33 -3.3 3.66 -5 4 C-5 4.66 -5 5.32 -5 6 C-6.32 5.67 -7.64 5.34 -9 5 C-6.03 3.35 -3.06 1.7 0 0 Z " fill="#21B772" transform="translate(527,390)"/>
<path d="M0 0 C3.3 0.99 6.6 1.98 10 3 C10 3.33 10 3.66 10 4 C7.36 4 4.72 4 2 4 C1.34 2.68 0.68 1.36 0 0 Z " fill="#13A35F" transform="translate(472,554)"/>
<path d="M0 0 C2.97 0 5.94 0 9 0 C9 1.32 9 2.64 9 4 C6.03 3.01 3.06 2.02 0 1 C0 0.67 0 0.34 0 0 Z " fill="#2CBF79" transform="translate(625,300)"/>
<path d="M0 0 C2.64752004 2.57784846 4.94432065 4.91648098 7 8 C6.01 8.33 5.02 8.66 4 9 C4 8.34 4 7.68 4 7 C3.34 7 2.68 7 2 7 C1.34 4.69 0.68 2.38 0 0 Z " fill="#3EC785" transform="translate(984,123)"/>
<path d="M0 0 C1.98 1.65 3.96 3.3 6 5 C5.67 5.99 5.34 6.98 5 8 C3.02 5.69 1.04 3.38 -1 1 C-0.67 0.67 -0.34 0.34 0 0 Z " fill="#04B15B" transform="translate(977,116)"/>
<path d="M0 0 C0.99 0 1.98 0 3 0 C5 3 5 3 4.625 5.1875 C4.41875 5.785625 4.2125 6.38375 4 7 C0 2.25 0 2.25 0 0 Z " fill="#35BF7F" transform="translate(97,956)"/>
<path d="M0 0 C0.99 0.99 1.98 1.98 3 3 C1.625 4.5 1.625 4.5 0 6 C-0.66 6 -1.32 6 -2 6 C-1.125 1.125 -1.125 1.125 0 0 Z " fill="#2EC37E" transform="translate(982,954)"/>
<path d="M0 0 C3.35595828 0.59927826 5.37801226 1.84622436 8 4 C5.36 4 2.72 4 0 4 C0 2.66666667 0 1.33333333 0 0 Z " fill="#0DB264" transform="translate(418,736)"/>
<path d="M0 0 C1.65 0 3.3 0 5 0 C4.67 0.99 4.34 1.98 4 3 C4.66 3.33 5.32 3.66 6 4 C3.03 3.505 3.03 3.505 0 3 C0 2.01 0 1.02 0 0 Z " fill="#2BB273" transform="translate(548,664)"/>
<path d="M0 0 C0.66 0 1.32 0 2 0 C2 2.31 2 4.62 2 7 C1.01 7 0.02 7 -1 7 C-0.67 4.69 -0.34 2.38 0 0 Z " fill="#19BD6C" transform="translate(74,161)"/>
<path d="M0 0 C2.91517292 1.07401108 4.77810176 1.77810176 7 4 C4.69 4 2.38 4 0 4 C0 2.68 0 1.36 0 0 Z " fill="#10A75E" transform="translate(578,592)"/>
<path d="M0 0 C-0.99 0.99 -1.98 1.98 -3 3 C-4.32 1.68 -5.64 0.36 -7 -1 C-3.51418144 -2.2020064 -3.32007656 -2.21338437 0 0 Z " fill="#19BF70" transform="translate(711,531)"/>
<path d="M0 0 C2.64 0 5.28 0 8 0 C8 0.99 8 1.98 8 3 C2.25 2.25 2.25 2.25 0 0 Z " fill="#1BB871" transform="translate(616,488)"/>
<path d="M0 0 C2.12038635 2.61514317 4.13091744 5.19637616 6 8 C5.01 8.33 4.02 8.66 3 9 C2.67 7.35 2.34 5.7 2 4 C1.34 4 0.68 4 0 4 C0 2.68 0 1.36 0 0 Z " fill="#16A461" transform="translate(618,454)"/>
<path d="M0 0 C2.31 0 4.62 0 7 0 C7.33 1.32 7.66 2.64 8 4 C2.25 2.25 2.25 2.25 0 0 Z " fill="#25BE78" transform="translate(528,454)"/>
</svg>
